<svg width="50" height="50" viewBox="0 0 50 50" xmlns="http://www.w3.org/2000/svg">
  <defs>
    <linearGradient id="iconGradient" x1="0%" y1="0%" x2="100%" y2="100%">
      <stop offset="0%" style="stop-color:#FF6B9D;stop-opacity:1" />
      <stop offset="100%" style="stop-color:#8B5CF6;stop-opacity:1" />
    </linearGradient>
  </defs>
  
  <!-- Icon Only Version -->
  <g transform="translate(25, 25)">
    <path d="M0 -15 C8 -15, 15 -8, 15 0 C15 8, 8 20, 0 30 C-8 20, -15 8, -15 0 C-15 -8, -8 -15, 0 -15 Z" 
          fill="url(#iconGradient)" stroke="none"/>
    
    <g transform="translate(0, 0)">
      <path d="M-8 2 L0 -6 L8 2 Z" fill="white"/>
      <rect x="-7" y="2" width="14" height="12" fill="white" rx="1"/>
      <rect x="-2.5" y="8" width="5" height="6" fill="url(#iconGradient)" rx="1"/>
      <circle cx="4" cy="6" r="1.5" fill="url(#iconGradient)"/>
      <circle cx="-4" cy="6" r="1.5" fill="url(#iconGradient)"/>
    </g>
    
    <!-- Letter "S" overlay for branding -->
    <text x="0" y="22" font-family="'Inter', 'Segoe UI', sans-serif" 
          font-size="8" font-weight="700" fill="white" text-anchor="middle">
      S
    </text>
  </g>
</svg>
